<svg width="1440" height="800" viewBox="0 0 1440 800" fill="none" xmlns="http://www.w3.org/2000/svg">
<path d="M526.256 234.392C679.225 74.5498 1249.38 -19.0512 1499.7 3.26903L1521.95 958H78.7015C77.7744 910.479 78.7014 815.73 78.7015 773.596C78.7016 700.416 452.263 311.708 526.256 234.392Z" fill="#80D6FF"/>
<path d="M1299.11 101.197H1623V357.563H550.283L638.38 281.103H686.316L786.073 194.524H883.24L910.446 170.911H1020.57L1052.96 142.801H1251.18L1299.11 101.197Z" fill="#ECD4B3"/>
<path d="M1386.89 299.094H1519.36V398.042H459.594L532.323 340.918H615.441L642.714 319.496H1262.21H1360.91L1386.89 299.094Z" fill="#DDAD67"/>
<path d="M1462.35 202.395L1496.01 328.891H1428.69L1462.35 202.395Z" fill="#DDAD67"/>
<path d="M1340.57 204.643L1363.01 331.14H1318.13L1340.57 204.643Z" fill="#DDAD67"/>
<path d="M716.113 218.136L738.553 344.633H693.674L716.113 218.136Z" fill="#DDAD67"/>
<path d="M1102.19 213.639L1124.63 340.135H1079.75L1102.19 213.639Z" fill="#DDAD67"/>
<path d="M863.806 247.371L886.246 346.882H841.367L863.806 247.371Z" fill="#DDAD67"/>
<path d="M1369.07 249.62L1389.27 327.205H1348.88L1369.07 249.62Z" fill="#DDAD67"/>
<path d="M747.206 269.859L767.402 347.444H727.011L747.206 269.859Z" fill="#DDAD67"/>
<path d="M687.611 272.108L707.807 349.693H667.416L687.611 272.108Z" fill="#DDAD67"/>
<path d="M1130.69 258.615L1150.89 336.2H1110.49L1130.69 258.615Z" fill="#DDAD67"/>
<mask id="mask0_15_2" style="mask-type:alpha" maskUnits="userSpaceOnUse" x="78" y="0" width="1444" height="958">
<path d="M526.256 234.392C679.225 74.5498 1249.38 -19.0512 1499.7 3.26903L1521.95 958H78.7015C77.7744 910.479 78.7014 815.731 78.7015 773.596C78.7016 700.416 452.263 311.708 526.256 234.392Z" fill="#BFEAFF"/>
</mask>
<g mask="url(#mask0_15_2)">
<rect x="6.15063" y="398.042" width="1469.16" height="308.089" fill="#BFEAFF"/>
</g>
<path fill-rule="evenodd" clip-rule="evenodd" d="M729.069 141.676L708.938 265.089L723.887 274.357L706.363 280.875L678.046 454.471L723.887 476.751L673.426 482.792L657.262 581.884H800.876L757.813 317.889L736.842 308.089L754.662 298.572L729.069 141.676Z" fill="#D28B23"/>
<path fill-rule="evenodd" clip-rule="evenodd" d="M641.576 343.546L621.426 254.117L586.617 408.609L612.469 422.779L582.402 427.318L561.649 519.424L583.967 530.723L557.825 536.395L542.509 604.372H700.343L643.966 354.155L633.198 350.817L641.576 343.546Z" fill="#B97E28"/>
<path fill-rule="evenodd" clip-rule="evenodd" d="M1470.73 271.584L1450.58 182.155L1415.77 336.646L1441.62 350.817L1411.56 355.355L1390.8 447.462L1413.12 458.761L1386.98 464.433L1371.66 532.41H1529.5L1473.12 282.192L1462.35 278.855L1470.73 271.584Z" fill="#D28B23"/>
<path d="M1327.06 299.717L1406.31 398.143H1247.81L1327.06 299.717Z" fill="#002F63"/>
<path d="M813.361 299.762H1327.09V398.116H813.361V299.762Z" fill="#002F63"/>
<path fill-rule="evenodd" clip-rule="evenodd" d="M901.561 398.123L823.679 299.717L745.796 398.123H745.771V578.384H901.587V398.123H901.561Z" fill="#002F63"/>
<mask id="mask1_15_2" style="mask-type:alpha" maskUnits="userSpaceOnUse" x="726" y="299" width="176" height="280">
<path fill-rule="evenodd" clip-rule="evenodd" d="M901.558 398.119L814.032 299.713L726.506 398.119H726.478V578.38H901.586V398.119H901.558Z" fill="#002F63"/>
</mask>
<g mask="url(#mask1_15_2)">
<path fill-rule="evenodd" clip-rule="evenodd" d="M956.694 411.412L859.489 313.006L762.284 411.412H762.253V591.674H956.725V411.412H956.694Z" fill="#33BEFF"/>
</g>
<mask id="mask2_15_2" style="mask-type:alpha" maskUnits="userSpaceOnUse" x="762" y="313" width="140" height="266">
<mask id="mask3_15_2" style="mask-type:alpha" maskUnits="userSpaceOnUse" x="726" y="299" width="176" height="280">
<path fill-rule="evenodd" clip-rule="evenodd" d="M901.558 398.119L814.032 299.713L726.506 398.119H726.478V578.38H901.586V398.119H901.558Z" fill="#002F63"/>
</mask>
<g mask="url(#mask3_15_2)">
<path fill-rule="evenodd" clip-rule="evenodd" d="M956.694 411.412L859.489 313.006L762.284 411.412H762.253V591.674H956.725V411.412H956.694Z" fill="#33BEFF"/>
</g>
</mask>
<g mask="url(#mask2_15_2)">
<path d="M877.764 363.675L723.489 503.905" stroke="#DDD0D0" stroke-width="25.7193"/>
<path d="M946.926 433.79L728.129 592.758" stroke="#DDD0D0" stroke-width="6.42982" stroke-linecap="square"/>
<path d="M924.438 419.324L756.12 550.123" stroke="#DDD0D0" stroke-width="6.42982"/>
</g>
<path d="M737.156 411.28H806.206" stroke="#BFEAFF" stroke-width="32.1491"/>
<path d="M839.427 339.171L843.004 578.591" stroke="#002F63" stroke-width="9.64473"/>
<path d="M806.206 355.953L806.206 578.384" stroke="#002F63" stroke-width="9.64473"/>
<path fill-rule="evenodd" clip-rule="evenodd" d="M901.558 397.5L814.032 299.094L726.506 397.5H726.478V577.761H901.586V397.5H901.558ZM883.207 401.436L814.032 323.663L744.857 401.436V577.761H883.207V401.436Z" fill="#BFEAFF"/>
<path fill-rule="evenodd" clip-rule="evenodd" d="M901.558 397.5L814.032 299.094L726.506 397.5H726.478V577.761H901.587V397.5H901.558ZM883.207 401.436L814.032 323.663L744.857 401.436V577.761H883.207V401.436Z" fill="#BFEAFF"/>
<rect x="901.586" y="398.123" width="504.947" height="180.262" fill="#80D6FF"/>
<path d="M980.229 578.592V438.635L1562.09 536.231V578.592H980.229Z" fill="#80D6FF"/>
<path fill-rule="evenodd" clip-rule="evenodd" d="M1057.66 451.623V578.453H980.229V438.635L1057.66 451.623Z" fill="#002F63"/>
<rect x="996.841" y="438.656" width="60.8167" height="139.728" fill="#2AB8FC"/>
<mask id="mask4_15_2" style="mask-type:alpha" maskUnits="userSpaceOnUse" x="996" y="448" width="62" height="131">
<rect x="996.841" y="448.395" width="60.8167" height="129.989" fill="#33BEFF"/>
</mask>
<g mask="url(#mask4_15_2)">
<path d="M1276.21 329.991L958.325 598.494" stroke="#DDD0D0" stroke-width="6.42982" stroke-linecap="square"/>
<path d="M1256.54 318.144L942.912 584.351" stroke="#DDD0D0" stroke-width="6.42982"/>
</g>
<path fill-rule="evenodd" clip-rule="evenodd" d="M1041.3 543.499L980.229 472.483V578.453H1041.3V543.499ZM980.229 438.635L1057.66 451.623V578.453H980.229V438.635Z" fill="#BFEAFF"/>
<path d="M1485.02 438.428L1562.92 536.854H1407.12L1485.02 438.428Z" fill="#002F63"/>
<path d="M980.101 438.469H1485.05V536.823H1057.4L980.101 438.469Z" fill="#002F63"/>
<mask id="mask5_15_2" style="mask-type:alpha" maskUnits="userSpaceOnUse" x="980" y="438" width="583" height="99">
<path d="M1410.44 535.247L1485.02 441.018L1559.59 535.247H1410.44Z" fill="#002F63" stroke="#0077FF" stroke-width="3.21491"/>
<path d="M1058.18 535.216L983.409 440.077H1483.44V535.216H1058.18Z" fill="#002F63" stroke="#0077FF" stroke-width="3.21491"/>
</mask>
<g mask="url(#mask5_15_2)">
<line x1="967.551" y1="465.588" x2="1574.77" y2="465.588" stroke="#0077FF" stroke-width="3.21491"/>
<line x1="986.119" y1="486.046" x2="1574.77" y2="486.046" stroke="#0077FF" stroke-width="3.21491"/>
<line x1="1006.66" y1="506.503" x2="1574.77" y2="506.503" stroke="#0077FF" stroke-width="3.21491"/>
</g>
<mask id="mask6_15_2" style="mask-type:alpha" maskUnits="userSpaceOnUse" x="813" y="299" width="594" height="100">
<path d="M1327.06 299.717L1406.31 398.143H1247.81L1327.06 299.717Z" fill="#002F63"/>
<path d="M813.361 299.762H1327.09V398.116H813.361V299.762Z" fill="#002F63"/>
</mask>
<g mask="url(#mask6_15_2)">
<line x1="831.307" y1="317.106" x2="1438.53" y2="317.106" stroke="#0077FF" stroke-width="3.21491"/>
<line x1="849.875" y1="337.563" x2="1438.53" y2="337.563" stroke="#0077FF" stroke-width="3.21491"/>
<line x1="870.419" y1="358.02" x2="1438.53" y2="358.02" stroke="#0077FF" stroke-width="3.21491"/>
<line x1="887.236" y1="378.478" x2="1436.92" y2="378.478" stroke="#0077FF" stroke-width="3.21491" stroke-linecap="square"/>
</g>
<path d="M1078.23 398.092L1136.11 330.865H1025.2L1078.23 398.092Z" fill="#BFEAFF"/>
<path d="M1078.1 330.865H1276.4V398.123H1078.1V330.865Z" fill="#002F63"/>
<path fill-rule="evenodd" clip-rule="evenodd" d="M1260.05 344.154H1094.46V398.123H1260.05V344.154ZM1078.1 330.865V398.123H1276.4V330.865H1078.1Z" fill="#80D6FF"/>
<path d="M1094.46 349.553H1238.58V398.091H1094.46V349.553Z" fill="#2AB8FC"/>
<mask id="mask7_15_2" style="mask-type:alpha" maskUnits="userSpaceOnUse" x="1094" y="349" width="145" height="50">
<path d="M1094.46 349.553H1238.58V398.091H1094.46V349.553Z" fill="#33BEFF"/>
</mask>
<g mask="url(#mask7_15_2)">
<path d="M1237.04 283.123L886.821 538.73" stroke="#DDD0D0" stroke-width="19.2895"/>
<path d="M1307.44 314.133L944.132 582.636" stroke="#DDD0D0" stroke-width="6.42982" stroke-linecap="square"/>
<path d="M1284.96 302.286L926.516 568.494" stroke="#DDD0D0" stroke-width="6.42982"/>
</g>
<path d="M1150.72 349.553L1150.72 398.123" stroke="#002F63" stroke-width="6.42982"/>
<path d="M1179.94 349.522L1179.94 398.091" stroke="#002F63" stroke-width="6.42982"/>
<path d="M801.465 411.28H845.529" stroke="#80D6FF" stroke-width="32.1491"/>
<path d="M478.879 631.343C509.413 596.009 553.804 575.7 600.503 575.7H1493.44V764.601H363.723L478.879 631.343Z" fill="#8E590A"/>
<path d="M10.9878 718.482C41.5083 680.798 87.4098 658.906 135.903 658.906H1493.44V958H-183L10.9878 718.482Z" fill="#002F63"/>
<ellipse cx="642.267" cy="579.073" rx="27.2066" ry="23.6127" fill="#8E590A"/>
<ellipse cx="696.68" cy="579.073" rx="27.2066" ry="23.6127" fill="#8E590A"/>
<ellipse cx="668.596" cy="564.782" rx="23.6961" ry="20.5659" fill="#8E590A"/>
<ellipse cx="1023.16" cy="581.321" rx="27.2066" ry="23.6127" fill="#8E590A"/>
<ellipse cx="1077.57" cy="581.321" rx="27.2066" ry="23.6127" fill="#8E590A"/>
<ellipse cx="1049.49" cy="571.528" rx="23.6961" ry="20.5659" fill="#8E590A"/>
<ellipse cx="1404.05" cy="588.068" rx="27.2066" ry="23.6127" fill="#8E590A"/>
<ellipse cx="1458.46" cy="588.068" rx="27.2066" ry="23.6127" fill="#8E590A"/>
<ellipse cx="1430.38" cy="573.777" rx="23.6961" ry="20.5659" fill="#8E590A"/>
<rect x="1208.42" y="272.108" width="25.9111" height="29.2347" fill="#002F63"/>
<path d="M1207.13 248.202V272.108H1233.04V259.752C1233.04 247.946 1242.61 238.375 1254.42 238.375H1256.68C1267.23 238.375 1275.79 229.817 1275.79 219.26C1275.79 208.704 1284.35 200.145 1294.91 200.145H1314.63C1323.95 200.145 1331.5 192.594 1331.5 183.279C1331.5 173.964 1339.05 166.413 1348.37 166.413H1376.14C1382.97 166.413 1388.5 160.875 1388.5 154.045C1388.5 147.214 1394.04 141.676 1400.87 141.676H1494.74V83.2065H1446.27C1437.26 83.2065 1429.96 90.506 1429.96 99.5105C1429.96 108.515 1422.66 115.814 1413.66 115.814H1380.19C1371.19 115.814 1363.89 123.114 1363.89 132.118C1363.89 141.123 1356.59 148.422 1347.59 148.422H1322.5C1311.02 148.422 1301.7 157.736 1301.7 169.224C1301.7 180.713 1292.39 190.026 1280.9 190.026H1270.79C1261.39 190.026 1253.77 197.647 1253.77 207.049C1253.77 216.898 1245.78 224.883 1235.93 224.883H1230.45C1217.57 224.883 1207.13 235.323 1207.13 248.202Z" fill="#FCFEFF"/>
</svg>
