<?xml version="1.0" encoding="utf-8"?>
<!-- Generator: Adobe Illustrator 27.5.0, SVG Export Plug-In . SVG Version: 6.00 Build 0)  -->
<svg version="1.1" xmlns="http://www.w3.org/2000/svg" xmlns:xlink="http://www.w3.org/1999/xlink" x="0px" y="0px"
	 viewBox="0 0 800 1200" style="enable-background:new 0 0 800 1200;" xml:space="preserve">
<g id="Background">
	<radialGradient id="SVGID_1_" cx="456.3992" cy="471.0612" r="736.4659" gradientUnits="userSpaceOnUse">
		<stop  offset="0.4218" style="stop-color:#F2FAFC"/>
		<stop  offset="0.5934" style="stop-color:#EEF7FA"/>
		<stop  offset="0.7525" style="stop-color:#E3EFF5"/>
		<stop  offset="0.9062" style="stop-color:#D0E2ED"/>
		<stop  offset="1" style="stop-color:#C1D7E6"/>
	</radialGradient>
	<rect style="fill:url(#SVGID_1_);" width="800" height="1200"/>
</g>
<g id="Graphic_Elements">
	<g>
		<defs>
			<rect id="SVGID_00000069387085740303021700000003162082044009170864_" width="800" height="1200"/>
		</defs>
		<clipPath id="SVGID_00000115478868238698213960000000951518233075092608_">
			<use xlink:href="#SVGID_00000069387085740303021700000003162082044009170864_"  style="overflow:visible;"/>
		</clipPath>
		<g style="clip-path:url(#SVGID_00000115478868238698213960000000951518233075092608_);">
			
				<linearGradient id="SVGID_00000163781384632252448220000001128543726793137595_" gradientUnits="userSpaceOnUse" x1="781.6702" y1="337.5178" x2="-525.2871" y2="880.7007">
				<stop  offset="0" style="stop-color:#6F97C7"/>
				<stop  offset="1" style="stop-color:#6F97C7;stop-opacity:0"/>
			</linearGradient>
			<path style="fill:url(#SVGID_00000163781384632252448220000001128543726793137595_);" d="M-510.568,874.669
				c-34.748-83.613-53.528-173.93-54.179-264.658c-0.091-11.337,0.114-22.679,0.593-34.01c0.431-11.333,1.147-22.659,2.134-33.964
				c1.978-22.609,5.07-45.132,9.259-67.46c4.197-22.328,9.486-44.458,15.729-66.329c6.275-21.863,13.622-43.435,22.009-64.613
				l6.493-15.804l6.878-15.646l7.225-15.497c2.532-5.106,5.005-10.246,7.59-15.33c10.371-20.319,21.744-40.149,34.071-59.392
				l4.678-7.181c1.559-2.395,3.105-4.799,4.745-7.139l4.852-7.07c1.611-2.362,3.231-4.718,4.921-7.023
				c6.617-9.328,13.45-18.51,20.519-27.515c14.135-18.013,29.171-35.348,45.043-51.914c31.738-33.133,66.719-63.322,104.476-89.751
				c37.735-26.457,78.17-49.213,120.476-67.924c42.323-18.665,86.561-33.303,131.925-43.46c22.68-5.082,45.638-9.049,68.761-11.874
				c23.122-2.834,46.412-4.511,69.749-4.967c93.348-1.993,187.4,14.913,274.732,49.583c43.65,17.346,85.725,38.913,125.16,64.672
				c39.447,25.711,76.538,55.222,110.107,88.404c16.813,16.556,32.813,33.95,47.919,52.098
				c15.113,18.141,29.326,37.045,42.491,56.658c26.412,39.172,48.799,81.038,66.957,124.606c9.022,21.81,17.003,44.06,23.883,66.652
				c6.857,22.599,12.571,45.547,17.163,68.715c9.137,46.349,13.502,93.609,13.271,140.791
				c-0.578,94.391-20.392,188.396-57.522,274.681l-7.142,16.096l-7.53,15.912c-2.646,5.238-5.264,10.487-7.958,15.696
				c-2.782,5.164-5.506,10.357-8.34,15.489c-11.369,20.51-23.731,40.449-37.028,59.721c-13.279,19.285-27.552,37.863-42.704,55.665
				c-15.143,17.809-31.15,34.857-47.943,51.059c-33.59,32.406-70.442,61.28-109.618,86.272
				c-39.187,24.987-80.756,46.017-123.83,62.851c-43.093,16.789-87.736,29.399-133.097,37.487
				c-22.679,4.047-45.535,6.97-68.454,8.755c-22.92,1.78-45.9,2.426-68.834,2.012c-22.935-0.434-45.825-2.001-68.561-4.686
				c-11.368-1.337-22.694-2.982-33.974-4.853c-2.827-0.422-5.639-0.939-8.449-1.462l-8.433-1.547
				c-2.815-0.488-5.61-1.088-8.407-1.672l-8.389-1.749c-44.677-9.644-88.271-23.772-130.151-41.671
				c-41.87-17.961-81.836-40.103-119.435-65.598c-18.781-12.78-36.927-26.475-54.347-41.02
				c-8.712-7.272-17.236-14.761-25.584-22.438c-8.37-7.653-16.553-15.508-24.525-23.57
				C-425.04,1035.299-475.818,958.283-510.568,874.669z M-507.306,873.313c17.333,41.585,38.669,81.501,63.725,118.934
				c25.046,37.438,53.804,72.389,85.718,104.169c63.8,63.608,140.287,114.371,223.567,148.686
				c83.272,34.345,173.317,52.116,263.347,51.898c45.012-0.088,90.006-4.648,134.111-13.581
				c44.109-8.923,87.318-22.223,128.858-39.519c41.52-17.342,81.366-38.679,118.728-63.727
				c37.366-25.038,72.242-53.778,103.949-85.666c31.713-31.882,60.257-66.905,85.115-104.367
				c24.872-37.456,46.02-77.367,63.177-118.916c34.285-83.116,52.136-172.976,51.971-262.869
				c-0.055-44.94-4.574-89.87-13.462-133.918c-8.878-44.052-22.127-87.212-39.371-128.712
				c-17.262-41.491-38.498-81.332-63.462-118.698c-24.951-37.373-53.608-72.27-85.422-104.01
				C549.647,59.488,473.363,8.752,390.267-25.58c-41.552-17.15-84.762-30.299-128.853-39.1
				c-44.088-8.808-89.046-13.282-134.014-13.295c-44.968-0.021-89.94,4.425-134.046,13.247
				c-44.109,8.812-87.34,22.002-128.921,39.197c-41.562,17.241-81.468,38.484-118.909,63.454
				c-37.444,24.959-72.416,53.633-104.231,85.474c-63.664,63.657-114.585,140.017-148.989,223.264
				c-34.426,83.233-52.402,173.255-52.323,263.347c0.012,45.04,4.499,90.077,13.366,134.239
				C-537.794,788.413-524.553,831.693-507.306,873.313z"/>
		</g>
		<g style="clip-path:url(#SVGID_00000115478868238698213960000000951518233075092608_);">
			
				<linearGradient id="SVGID_00000152958252379773527090000017886928148751031464_" gradientUnits="userSpaceOnUse" x1="1346.7075" y1="769.6252" x2="780.8433" y2="1732.9191">
				<stop  offset="0" style="stop-color:#89CDE6"/>
				<stop  offset="0.0695" style="stop-color:#89CDE6;stop-opacity:0.9305"/>
				<stop  offset="1" style="stop-color:#89CDE6;stop-opacity:0"/>
			</linearGradient>
			<path style="fill:url(#SVGID_00000152958252379773527090000017886928148751031464_);" d="M787.945,1720.965
				c-30.774-18.002-59.826-38.973-86.545-62.608c-13.334-11.843-26.207-24.218-38.398-37.254
				c-12.199-13.025-23.756-26.66-34.617-40.836c-5.436-7.084-10.688-14.311-15.762-21.661c-5.109-7.327-10.036-14.784-14.782-22.358
				c-9.49-15.148-18.24-30.771-26.208-46.795c-15.873-32.071-28.93-65.616-38.483-100.223
				c-9.506-34.606-15.939-70.145-18.712-106.07l-0.474-6.739c-0.159-2.247-0.33-4.494-0.413-6.744l-0.312-6.752
				c-0.111-2.251-0.212-4.503-0.247-6.756c-0.279-9.011-0.353-18.034-0.194-27.059c0.314-18.049,1.517-36.102,3.612-54.072
				c4.186-35.937,11.798-71.579,22.958-106.185c11.132-34.613,25.727-68.192,43.43-100.123
				c35.429-63.83,83.59-121.156,141.51-166.873c57.852-45.764,125.194-79.963,196.797-99.729
				c35.796-9.867,72.618-16.331,109.778-18.862c37.144-2.572,74.62-1.638,111.621,3.326c18.502,2.443,36.891,5.802,55.075,10.063
				c9.094,2.122,18.135,4.481,27.111,7.064c8.98,2.574,17.872,5.449,26.701,8.498c35.304,12.237,69.409,27.936,101.627,46.802
				c32.138,18.999,62.475,41.11,90.346,65.996c27.846,24.919,53.064,52.733,75.363,82.653
				c44.517,59.932,76.663,128.77,94.16,200.938c17.565,72.158,20.487,147.601,8.688,220.398
				c-11.751,72.825-38.328,142.792-76.819,204.806c-19.261,31.005-41.475,60.101-66.278,86.675
				c-12.399,13.289-25.44,25.949-39.059,37.921c-13.621,11.969-27.816,23.248-42.477,33.841
				c-29.332,21.187-60.747,39.301-93.452,54.381c-32.727,15.063-66.888,26.773-101.74,35.321
				c-34.877,8.501-70.529,13.453-106.268,15.205c-17.875,0.843-35.781,0.81-53.632-0.102c-8.926-0.454-17.837-1.136-26.726-2.016
				c-8.891-0.853-17.761-1.921-26.595-3.219c-17.67-2.583-35.206-6.038-52.523-10.35c-17.32-4.303-34.401-9.513-51.237-15.394
				C851.117,1754.243,818.653,1739.079,787.945,1720.965z M789.509,1718.302c30.597,17.913,62.916,32.88,96.394,44.524
				c33.475,11.652,68.1,19.982,103.206,24.824c70.215,9.729,142.308,5.376,210.869-12.523
				c68.568-17.873,133.575-49.285,190.05-92.043c28.246-21.359,54.366-45.521,77.858-72.011
				c23.499-26.486,44.362-55.297,62.284-85.832c17.888-30.554,32.834-62.827,44.461-96.258
				c11.635-33.427,19.953-68.002,24.789-103.058c9.715-70.115,5.369-142.105-12.506-210.57
				c-17.848-68.471-49.216-133.386-91.913-189.779c-21.329-28.206-45.455-54.288-71.908-77.747
				c-26.448-23.465-55.219-44.298-85.71-62.196c-30.489-17.901-62.686-32.899-96.062-44.571
				c-33.369-11.683-67.898-20.057-102.919-24.953c-70.045-9.835-142.017-5.626-210.513,12.123
				c-68.503,17.723-133.498,48.979-190.01,91.603c-28.264,21.292-54.414,45.393-77.946,71.831
				c-23.539,26.434-44.45,55.201-62.428,85.703c-17.944,30.521-32.951,62.772-44.643,96.193
				c-11.7,33.417-20.086,67.996-24.989,103.068c-9.849,70.146-5.634,142.221,12.141,210.815
				c17.748,68.6,49.049,133.689,91.735,190.281c21.323,28.305,45.458,54.493,71.934,78.058
				C730.156,1679.358,758.965,1700.299,789.509,1718.302z"/>
		</g>
		<g style="clip-path:url(#SVGID_00000115478868238698213960000000951518233075092608_);">
			
				<linearGradient id="SVGID_00000069373960038810104200000007415981266296833978_" gradientUnits="userSpaceOnUse" x1="720.5696" y1="1196.8052" x2="1629.7601" y2="732.5237">
				<stop  offset="2.776000e-04" style="stop-color:#BAE6E6"/>
				<stop  offset="0.1411" style="stop-color:#BAE6E6;stop-opacity:0.8591"/>
				<stop  offset="1" style="stop-color:#BAE6E6;stop-opacity:0"/>
			</linearGradient>
			<path style="fill:url(#SVGID_00000069373960038810104200000007415981266296833978_);" d="M1615.748,739.592
				c7.375,14.414,14.062,29.183,20.014,44.244c5.949,15.061,11.247,30.386,15.732,45.955c4.465,15.571,8.307,31.333,11.308,47.268
				c3.011,15.932,5.235,32.019,6.66,48.184c0.719,8.082,1.227,16.184,1.538,24.295c0.357,8.11,0.513,16.231,0.473,24.354
				c-0.082,16.247-0.964,32.5-2.641,48.683c-1.685,16.182-4.16,32.29-7.3,48.281c-3.172,15.986-7.128,31.831-11.852,47.461
				l-3.693,11.679l-3.978,11.591l-4.226,11.51c-1.499,3.802-2.954,7.626-4.493,11.417c-6.178,15.153-13.104,30.021-20.751,44.532
				c-1.96,3.6-3.831,7.255-5.87,10.815c-2.048,3.554-4.006,7.166-6.134,10.676c-4.161,7.08-8.485,14.07-12.991,20.95
				c-9.008,13.76-18.707,27.095-29.056,39.937c-20.693,25.682-43.873,49.509-69.32,70.811
				c-25.424,21.323-53.036,40.176-82.262,56.247c-58.452,32.102-123.67,53.042-190.862,60.184
				c-67.158,7.205-136.096,0.787-201.286-18.999c-32.581-9.905-64.309-22.939-94.351-39.248
				c-30.049-16.261-58.665-35.385-84.887-57.464c-13.136-11.003-25.735-22.661-37.732-34.919
				c-12.003-12.251-23.399-25.111-34.057-38.56c-21.391-26.841-39.99-55.89-55.615-86.401
				c-7.765-15.281-14.802-30.943-21.061-46.916c-6.237-15.982-11.657-32.285-16.28-48.807
				c-9.203-33.063-14.953-67.057-17.395-101.232c-4.756-68.383,4.526-137.499,26.814-201.849
				c22.224-64.38,57.424-123.962,102.623-174.128c45.187-50.206,100.34-90.773,160.601-119.298
				c30.143-14.253,61.594-25.569,93.764-33.665c16.084-4.05,32.345-7.3,48.703-9.736c16.359-2.43,32.811-4.049,49.275-4.925
				c16.466-0.856,32.953-0.897,49.378-0.129c8.213,0.378,16.409,0.985,24.584,1.747c4.091,0.327,8.164,0.863,12.244,1.285
				c4.079,0.436,8.136,1.062,12.201,1.584c32.483,4.599,64.387,12.492,95.268,23.083c30.876,10.647,60.574,24.411,88.789,40.6
				c14.093,8.129,27.777,16.942,40.986,26.4c6.606,4.727,13.087,9.624,19.457,14.655c6.388,5.008,12.654,10.17,18.779,15.49
				c12.26,10.631,23.988,21.864,35.128,33.643c11.147,11.775,21.668,24.124,31.663,36.872
				C1583.555,683.306,1601.04,710.742,1615.748,739.592z M1612.643,741.178c-14.66-28.623-32.074-55.833-51.997-81.069
				c-19.916-25.239-42.333-48.5-66.819-69.329c-48.953-41.693-106.214-73.535-167.387-93.293
				c-61.17-19.78-126.233-27.357-190.263-22.155c-32.014,2.588-63.764,8.356-94.635,17.185
				c-30.874,8.822-60.861,20.706-89.436,35.338c-28.559,14.664-55.7,32.074-80.865,51.983
				c-25.169,19.902-48.359,42.296-69.117,66.75c-20.763,24.45-39.095,50.955-54.67,78.986
				c-15.587,28.027-28.377,57.592-38.258,88.091c-19.733,61.012-27.403,125.898-22.264,189.798
				c2.55,31.947,8.273,63.636,17.053,94.454c8.773,30.822,20.603,60.765,35.181,89.305c14.583,28.537,31.894,55.681,51.72,80.858
				c19.817,25.182,42.131,48.398,66.514,69.195c48.748,41.629,105.807,73.461,166.8,93.25c30.5,9.879,61.951,16.839,93.792,20.653
				c31.839,3.82,64.057,4.51,96.037,2.027c31.98-2.477,63.717-8.131,94.596-16.85c30.883-8.712,60.9-20.49,89.523-35.025
				c28.607-14.568,55.816-31.891,81.065-51.728c25.252-19.83,48.541-42.167,69.408-66.583
				c41.759-48.817,73.766-105.965,93.615-167.112c19.862-61.139,27.643-126.194,22.572-190.295
				c-2.516-32.048-8.215-63.846-16.983-94.778C1639.065,799.898,1627.233,769.837,1612.643,741.178z"/>
		</g>
		<g style="clip-path:url(#SVGID_00000115478868238698213960000000951518233075092608_);">
			
				<linearGradient id="SVGID_00000011725935417089439630000009770614977220771740_" gradientUnits="userSpaceOnUse" x1="-69.2514" y1="360.674" x2="871.0801" y2="758.1177">
				<stop  offset="2.776000e-04" style="stop-color:#BAE6E6"/>
				<stop  offset="0.1411" style="stop-color:#BAE6E6;stop-opacity:0.8591"/>
				<stop  offset="1" style="stop-color:#BAE6E6;stop-opacity:0"/>
			</linearGradient>
			<path style="fill:url(#SVGID_00000011725935417089439630000009770614977220771740_);" d="M856.654,751.936
				c-6.292,14.919-13.298,29.539-21,43.784c-7.705,14.243-16.03,28.158-25.064,41.607c-9.05,13.436-18.646,26.517-28.916,39.064
				c-10.26,12.554-21.147,24.605-32.607,36.094c-5.725,5.749-11.602,11.35-17.612,16.807c-5.979,5.49-12.097,10.834-18.342,16.029
				c-12.492,10.388-25.504,20.168-38.973,29.295c-13.474,9.12-27.398,17.586-41.661,25.469
				c-14.28,7.854-28.956,15.019-43.962,21.456l-11.317,4.686l-11.433,4.41l-11.531,4.169c-3.875,1.298-7.74,2.644-11.631,3.904
				c-15.576,5.017-31.415,9.279-47.444,12.759c-4.017,0.815-8.019,1.733-12.056,2.463c-4.038,0.718-8.063,1.543-12.12,2.171
				c-8.097,1.369-16.231,2.555-24.396,3.531c-16.33,1.954-32.779,3.107-49.268,3.444c-32.974,0.677-66.128-1.743-98.807-7.523
				c-32.681-5.749-64.877-14.762-95.982-26.8c-62.18-24.103-120.164-60.565-168.856-107.415
				c-48.718-46.784-88.151-103.693-114.937-166.332c-13.375-31.316-23.805-63.994-30.644-97.485
				c-6.88-33.467-10.646-67.678-10.61-101.957c-0.026-17.136,0.796-34.282,2.463-51.352c1.658-17.071,4.173-34.068,7.615-50.88
				c6.791-33.644,17.066-66.57,30.375-98.16c6.705-15.775,14.169-31.238,22.372-46.305c8.224-15.056,17.22-29.693,26.896-43.862
				c19.394-28.314,41.722-54.585,66.317-78.438c49.297-47.63,108.185-84.985,171.791-109.315
				c63.588-24.4,131.85-35.777,199.333-33.441c67.507,2.3,134.045,18.432,194.649,46.22c30.303,13.91,59.198,30.71,86.092,50.132
				c13.448,9.709,26.397,20.068,38.784,31.026c12.384,10.961,24.206,22.516,35.469,34.558
				c11.248,12.057,21.884,24.653,31.863,37.723c4.993,6.532,9.801,13.197,14.476,19.946c2.382,3.342,4.591,6.806,6.892,10.201
				c2.29,3.403,4.421,6.912,6.636,10.361c17.374,27.828,31.854,57.333,43.61,87.789c11.71,30.489,20.276,62.081,26.032,94.097
				c2.842,16.018,4.896,32.165,6.153,48.362c0.63,8.099,1.05,16.21,1.296,24.324c0.275,8.113,0.354,16.23,0.221,24.343
				c-0.253,16.225-1.309,32.431-3.162,48.538c-1.845,16.109-4.531,32.108-7.862,47.961
				C879.039,691.081,869.281,722.116,856.654,751.936z M853.442,750.578c12.484-29.637,22.115-60.474,28.62-91.96
				c6.513-31.484,9.902-63.611,10.098-95.756c0.431-64.3-12.025-128.625-36.248-188.171
				c-24.206-59.558-60.257-114.246-105.43-159.923c-22.576-22.846-47.416-43.445-74.034-61.401
				c-26.615-17.964-55.003-33.278-84.588-45.744c-29.599-12.432-60.388-22.013-91.819-28.474
				c-31.429-6.467-63.491-9.816-95.567-9.979c-32.076-0.168-64.162,2.845-95.642,8.953c-31.485,6.095-62.349,15.322-92.056,27.375
				c-59.407,24.14-114.02,60.007-159.637,105.047c-22.819,22.503-43.4,47.27-61.347,73.816
				c-17.955,26.543-33.27,54.863-45.743,84.383c-12.468,29.522-22.115,60.237-28.637,91.612
				c-6.532,31.371-9.953,63.39-10.191,95.437c-0.514,64.103,11.819,128.265,35.904,187.694
				c12.056,29.706,26.959,58.264,44.522,85.096c17.556,26.834,37.753,51.945,60.226,74.833
				c22.469,22.892,47.213,43.553,73.753,61.587c26.536,18.04,54.863,33.446,84.405,46.01c29.556,12.532,60.322,22.22,91.752,28.79
				c31.427,6.578,63.51,10.039,95.627,10.31c64.238,0.569,128.582-11.687,188.167-35.825c59.587-24.122,114.4-60.013,160.217-105.13
				c22.918-22.542,43.598-47.36,61.64-73.971C825.481,808.581,840.886,780.185,853.442,750.578z"/>
		</g>
	</g>
</g>
</svg>
