<svg width="24" height="24" viewBox="0 0 24 24" fill="none" xmlns="http://www.w3.org/2000/svg">
<path d="M7 9L11.77 4.735C13.066 3.578 13.713 3 14.5 3C15.287 3 15.935 3.578 17.23 4.735L22 9M8.5 8V20M20.5 20V8" stroke="#0077FF" stroke-width="1.5" stroke-linecap="round" stroke-linejoin="round"/>
<path d="M3.5 14C4.32843 14 5 13.1046 5 12C5 10.8954 4.32843 10 3.5 10C2.67157 10 2 10.8954 2 12C2 13.1046 2.67157 14 3.5 14Z" stroke="#0077FF" stroke-width="1.5" stroke-linecap="round" stroke-linejoin="round"/>
<path d="M3.5 14V20M2 20H22M12 20V16C12 15.057 12 14.586 12.293 14.293C12.586 14 13.057 14 14 14H15C15.943 14 16.414 14 16.707 14.293C17 14.586 17 15.057 17 16V20M13.5 11H15.5M13.5 8H15.5" stroke="#0077FF" stroke-width="1.5" stroke-linecap="round" stroke-linejoin="round"/>
</svg>
