<svg width="24" height="24" viewBox="0 0 24 24" fill="none" xmlns="http://www.w3.org/2000/svg">
<path d="M10.9999 11L5.99994 5.99996M4.99994 7.49996L7.49994 4.99996L4.49994 3.49996L3.49994 4.49996L4.99994 7.49996ZM19.9749 8.97496C20.455 8.49528 20.7853 7.88636 20.9256 7.22233C21.0659 6.55831 21.01 5.86783 20.7649 5.23496L19.3429 6.65696H17.3429V4.65696L18.7649 3.23496C18.132 2.9893 17.4413 2.93302 16.777 3.07298C16.1127 3.21293 15.5034 3.54308 15.0234 4.0232C14.5433 4.50332 14.2133 5.11269 14.0735 5.77705C13.9337 6.44142 13.9901 7.1321 14.2359 7.76496L7.76594 14.236C7.13308 13.9902 6.44239 13.9337 5.77803 14.0735C5.11366 14.2133 4.5043 14.5434 4.02418 15.0234C3.54406 15.5034 3.21391 16.1127 3.07396 16.777C2.934 17.4413 2.99028 18.132 3.23594 18.765L4.65694 17.343H6.65694V19.343L5.23494 20.765C5.86769 21.0106 6.55823 21.067 7.22244 20.9272C7.88666 20.7874 8.4959 20.4575 8.97597 19.9776C9.45604 19.4978 9.78621 18.8887 9.9263 18.2245C10.0664 17.5604 10.0103 16.8698 9.76494 16.237L16.2369 9.76496C16.8695 10.0096 17.5596 10.0652 18.2232 9.92499C18.8869 9.78474 19.4954 9.45468 19.9749 8.97496Z" stroke="#0077FF" stroke-width="1.5" stroke-linecap="round" stroke-linejoin="round"/>
<path d="M11.7969 14.5L17.4009 20.104C17.5263 20.2296 17.6752 20.3293 17.8392 20.3973C18.0031 20.4653 18.1789 20.5003 18.3564 20.5003C18.5339 20.5003 18.7096 20.4653 18.8736 20.3973C19.0375 20.3293 19.1865 20.2296 19.3119 20.104L20.1039 19.312C20.2295 19.1866 20.3292 19.0377 20.3972 18.8737C20.4652 18.7098 20.5002 18.534 20.5002 18.3565C20.5002 18.179 20.4652 18.0032 20.3972 17.8393C20.3292 17.6753 20.2295 17.5264 20.1039 17.401L14.4999 11.797" stroke="#0077FF" stroke-width="1.5" stroke-linecap="round" stroke-linejoin="round"/>
</svg>
