<svg width="309" height="309" viewBox="0 0 309 309" fill="none" xmlns="http://www.w3.org/2000/svg">
<path d="M114.886 0C85.4387 0 55.9879 11.1982 33.5885 33.5914C-11.201 78.3809 -11.201 151.388 33.5885 196.178C75.5198 238.106 142.047 240.572 187.121 203.989L198.171 215.039C197.546 217.286 197.401 219.448 197.745 221.376C198.09 223.304 198.916 224.951 200.167 226.203L280.359 306.392C282.652 308.684 286.222 309.511 290.284 308.69C294.346 307.869 298.568 305.469 302.02 302.017C305.472 298.564 307.872 294.342 308.692 290.28C309.512 286.218 308.685 282.648 306.392 280.356L226.207 200.17C224.954 198.917 223.306 198.089 221.376 197.744C219.447 197.399 217.283 197.545 215.033 198.171L203.983 187.121C240.569 142.044 238.106 75.5165 196.178 33.5914C173.785 11.1982 144.334 0.00309 114.886 0.00309M114.886 25.3936C137.743 25.3936 160.603 34.1507 178.117 51.6648C186.443 59.955 193.05 69.8081 197.558 80.6584C202.067 91.5088 204.387 103.143 204.387 114.892C204.387 126.642 202.067 138.276 197.558 149.126C193.05 159.977 186.443 169.83 178.117 178.12C169.827 186.446 159.974 193.053 149.123 197.561C138.273 202.069 126.639 204.39 114.889 204.39C103.14 204.39 91.5059 202.069 80.6556 197.561C69.8052 193.053 59.9521 186.446 51.6619 178.12C43.3356 169.83 36.7288 159.977 32.2206 149.126C27.7124 138.276 25.3917 126.642 25.3917 114.892C25.3917 103.143 27.7124 91.5088 32.2206 80.6584C36.7288 69.8081 43.3356 59.955 51.6619 51.6648C69.176 34.1507 92.0328 25.3936 114.886 25.3936Z" fill="#0077FF"/>
<path d="M115.798 53.2716C116.709 53.2716 117.59 53.6084 118.267 54.2171L176.343 101.296C178.868 103.555 177.264 104.838 173.881 104.834H158.882V164.348C158.882 166.381 157.232 168.031 155.195 168.031H76.4096C75.4319 168.031 74.4943 167.643 73.803 166.951C73.1116 166.26 72.7232 165.322 72.7232 164.345V104.834H57.7244C54.3408 104.838 52.7402 103.555 55.2616 101.296L113.338 54.2171C114.015 53.6115 114.889 53.2716 115.798 53.2716Z" fill="#0077FF"/>
</svg>
